g BlocksterMiniMesh
v 0.45 1.093193 0.7212213
v -0.45 1.093193 0.7212213
v -0.45 1.543193 0.7212213
v 0.45 1.543193 0.7212213
v -0.45 1.778106 0.7212214
v 0.0101414 1.805502 0.7212214
v -0.2758293 1.868424 0.7212214
v 0.1863152 1.793702 0.7212214
v 0.45 1.737729 0.7212214
v -0.3992156 1.890472 0.7212214
v -0.2898268 1.918303 0.7212214
v 0.00572595 1.903047 0.7212214
v 0.2423798 1.829914 0.7212214
v -0.5 1.34934 -0.2287786
v -0.4999999 1.395609 0.08070247
v -0.5 1.093193 0.6712213
v -0.5 1.093193 -0.2287786
v -0.5 1.543193 0.6712213
v -0.5 1.65657 0.3071567
v -0.5 1.767738 0.6712213
v 0.45 1.043193 -0.2287786
v -0.45 1.043193 -0.2287786
v -0.45 1.043193 0.6712213
v 0.45 1.043193 0.6712213
v -0.45 1.543193 0.7212213
v -0.45 1.093193 0.7212213
v -0.5 1.093193 0.6712213
v -0.5 1.543193 0.6712213
v -0.5 1.767738 0.6712213
v -0.45 1.778106 0.7212214
v -0.45 1.093193 0.7212213
v 0.45 1.093193 0.7212213
v 0.45 1.043193 0.6712213
v -0.45 1.043193 0.6712213
v -0.45 1.043193 0.6712213
v -0.45 1.043193 -0.2287786
v -0.5 1.093193 -0.2287786
v -0.5 1.093193 0.6712213
v 0.45 1.043193 -0.2287786
v 0.45 1.043193 0.6712213
v 0.5 1.093193 0.6712213
v 0.5 1.093193 -0.2287786
v -0.45 1.093193 0.7212213
v -0.45 1.043193 0.6712213
v -0.5 1.093193 0.6712213
v 0.45 1.093193 0.7212213
v 0.5 1.093193 0.6712213
v 0.45 1.043193 0.6712213
v 0.5 1.093193 0.6712213
v 0.5 1.543193 0.6712213
v 0.5 1.395609 0.08070247
v 0.5 1.34934 -0.2287786
v 0.5 1.093193 -0.2287786
v 0.5 1.65657 0.3071566
v 0.5 1.741937 0.6712213
v 0.45 1.543193 0.7212213
v 0.5 1.543193 0.6712213
v 0.5 1.093193 0.6712213
v 0.45 1.093193 0.7212213
v 0.45 1.737729 0.7212214
v 0.5 1.741937 0.6712213
v -0.45 1.043193 -0.2287786
v 0.45 1.043193 -0.2287786
v 0.45 1.093193 -0.2787786
v -0.45 1.093193 -0.2787786
v -0.45 1.093193 -0.2787786
v -0.5 1.093193 -0.2287786
v -0.45 1.043193 -0.2287786
v 0.45 1.093193 -0.2787786
v 0.45 1.043193 -0.2287786
v 0.5 1.093193 -0.2287786
v 0.45 1.34934 -0.2787786
v -0.45 1.34934 -0.2787786
v -0.45 1.093193 -0.2787786
v 0.45 1.093193 -0.2787786
v -0.45 1.34934 -0.2787786
v -0.5 1.34934 -0.2287786
v -0.5 1.093193 -0.2287786
v -0.45 1.093193 -0.2787786
v 0.5 1.34934 -0.2287786
v 0.45 1.34934 -0.2787786
v 0.45 1.093193 -0.2787786
v 0.5 1.093193 -0.2287786
v 0.325 0.0125 0.09622137
v 0.325 0.23125 0.09622137
v 0.325 0.225 -0.1287786
v 0.325 0.025 -0.1287786
v 0.325 0.025 0.2858663
v 0.30625 0.25 0.07747136
v 0.09374999 0.25 0.07747136
v 0.09999999 0.25 -0.1287786
v 0.3 0.25 -0.1287786
v 0.075 0.23125 0.09622137
v 0.075 0.0125 0.09622137
v 0.075 0.025 -0.1287786
v 0.075 0.225 -0.1287786
v 0.075 0.025 0.2858663
v 0.08750001 0 0.09622137
v 0.3125 0 0.09622137
v 0.3 0 -0.1287786
v 0.09999999 0 -0.1287786
v 0.09999999 0 0.3212213
v 0.3 0 0.3212213
v 0.3 0.025 -0.1537786
v 0.3 0.225 -0.1537786
v 0.09999999 0.225 -0.1537786
v 0.09999999 0.025 -0.1537786
v 0.3 0.01767807 0.3285434
v 0.09999999 0.01767807 0.3285434
v 0.09374999 0.236742 0.1094794
v 0.30625 0.236742 0.1094794
v 0.325 0.025 -0.1287786
v 0.325 0.225 -0.1287786
v 0.3 0.225 -0.1537786
v 0.3 0.025 -0.1537786
v 0.09374999 0.25 0.07747136
v 0.30625 0.25 0.07747136
v 0.30625 0.236742 0.1094794
v 0.09374999 0.236742 0.1094794
v 0.3 0.025 -0.1537786
v 0.09999999 0.025 -0.1537786
v 0.09999999 0 -0.1287786
v 0.3 0 -0.1287786
v 0.09999999 0.025 -0.1537786
v 0.09999999 0.225 -0.1537786
v 0.075 0.225 -0.1287786
v 0.075 0.025 -0.1287786
v 0.3 0.25 -0.1287786
v 0.09999999 0.25 -0.1287786
v 0.09999999 0.225 -0.1537786
v 0.3 0.225 -0.1537786
v 0.325 0.025 0.2858663
v 0.325 0.0125 0.09622137
v 0.3125 0 0.09622137
v 0.3 0 0.3212213
v 0.325 0.0125 0.09622137
v 0.325 0.025 -0.1287786
v 0.3 0 -0.1287786
v 0.3125 0 0.09622137
v 0.09999999 0 0.3212213
v 0.075 0.025 0.2858663
v 0.09999999 0.01767807 0.3285434
v 0.3 0 0.3212213
v 0.3 0.01767807 0.3285434
v 0.325 0.025 0.2858663
v 0.08750001 0 0.09622137
v 0.09999999 0 -0.1287786
v 0.075 0.025 -0.1287786
v 0.075 0.0125 0.09622137
v 0.075 0.0125 0.09622137
v 0.075 0.025 0.2858663
v 0.09999999 0 0.3212213
v 0.08750001 0 0.09622137
v 0.075 0.23125 0.09622137
v 0.09374999 0.25 0.07747136
v 0.09374999 0.236742 0.1094794
v 0.09999999 0 -0.1287786
v 0.09999999 0.025 -0.1537786
v 0.075 0.025 -0.1287786
v 0.075 0.225 -0.1287786
v 0.09999999 0.225 -0.1537786
v 0.09999999 0.25 -0.1287786
v 0.09999999 0.01767807 0.3285434
v 0.3 0.01767807 0.3285434
v 0.3 0 0.3212213
v 0.09999999 0 0.3212213
v 0.325 0.23125 0.09622137
v 0.325 0.025 0.2858663
v 0.3 0.01767807 0.3285434
v 0.30625 0.236742 0.1094794
v 0.075 0.025 0.2858663
v 0.075 0.23125 0.09622137
v 0.09374999 0.236742 0.1094794
v 0.09999999 0.01767807 0.3285434
v 0.325 0.23125 0.09622137
v 0.30625 0.236742 0.1094794
v 0.30625 0.25 0.07747136
v 0.09999999 0.25 -0.1287786
v 0.09374999 0.25 0.07747136
v 0.075 0.23125 0.09622137
v 0.075 0.225 -0.1287786
v 0.3 0.25 -0.1287786
v 0.3 0.225 -0.1537786
v 0.325 0.225 -0.1287786
v 0.3 0 -0.1287786
v 0.325 0.025 -0.1287786
v 0.3 0.025 -0.1537786
v 0.30625 0.25 0.07747136
v 0.3 0.25 -0.1287786
v 0.325 0.225 -0.1287786
v 0.325 0.23125 0.09622137
v -0.07499694 0.0125 0.09622137
v -0.07499694 0.23125 0.09622137
v -0.07499694 0.225 -0.1287786
v -0.07499694 0.025 -0.1287786
v -0.07499694 0.025 0.2858663
v -0.09374695 0.25 0.07747136
v -0.3062469 0.25 0.07747136
v -0.2999969 0.25 -0.1287786
v -0.09999694 0.25 -0.1287786
v -0.3249969 0.23125 0.09622137
v -0.3249969 0.0125 0.09622137
v -0.3249969 0.025 -0.1287786
v -0.3249969 0.225 -0.1287786
v -0.3249969 0.025 0.2858663
v -0.312497 0 0.09622137
v -0.08749694 0 0.09622137
v -0.09999694 0 -0.1287786
v -0.2999969 0 -0.1287786
v -0.2999969 0 0.3212213
v -0.09999694 0 0.3212213
v -0.09999694 0.025 -0.1537786
v -0.09999694 0.225 -0.1537786
v -0.2999969 0.225 -0.1537786
v -0.2999969 0.025 -0.1537786
v -0.09999694 0.01767807 0.3285434
v -0.2999969 0.01767807 0.3285434
v -0.3062469 0.236742 0.1094794
v -0.09374695 0.236742 0.1094794
v -0.07499694 0.025 -0.1287786
v -0.07499694 0.225 -0.1287786
v -0.09999694 0.225 -0.1537786
v -0.09999694 0.025 -0.1537786
v -0.3062469 0.25 0.07747136
v -0.09374695 0.25 0.07747136
v -0.09374695 0.236742 0.1094794
v -0.3062469 0.236742 0.1094794
v -0.09999694 0.025 -0.1537786
v -0.2999969 0.025 -0.1537786
v -0.2999969 0 -0.1287786
v -0.09999694 0 -0.1287786
v -0.2999969 0.025 -0.1537786
v -0.2999969 0.225 -0.1537786
v -0.3249969 0.225 -0.1287786
v -0.3249969 0.025 -0.1287786
v -0.09999694 0.25 -0.1287786
v -0.2999969 0.25 -0.1287786
v -0.2999969 0.225 -0.1537786
v -0.09999694 0.225 -0.1537786
v -0.07499694 0.025 0.2858663
v -0.07499694 0.0125 0.09622137
v -0.08749694 0 0.09622137
v -0.09999694 0 0.3212213
v -0.07499694 0.0125 0.09622137
v -0.07499694 0.025 -0.1287786
v -0.09999694 0 -0.1287786
v -0.08749694 0 0.09622137
v -0.2999969 0 0.3212213
v -0.3249969 0.025 0.2858663
v -0.2999969 0.01767807 0.3285434
v -0.09999694 0 0.3212213
v -0.09999694 0.01767807 0.3285434
v -0.07499694 0.025 0.2858663
v -0.312497 0 0.09622137
v -0.2999969 0 -0.1287786
v -0.3249969 0.025 -0.1287786
v -0.3249969 0.0125 0.09622137
v -0.3249969 0.0125 0.09622137
v -0.3249969 0.025 0.2858663
v -0.2999969 0 0.3212213
v -0.312497 0 0.09622137
v -0.3249969 0.23125 0.09622137
v -0.3062469 0.25 0.07747136
v -0.3062469 0.236742 0.1094794
v -0.2999969 0 -0.1287786
v -0.2999969 0.025 -0.1537786
v -0.3249969 0.025 -0.1287786
v -0.3249969 0.225 -0.1287786
v -0.2999969 0.225 -0.1537786
v -0.2999969 0.25 -0.1287786
v -0.2999969 0.01767807 0.3285434
v -0.09999694 0.01767807 0.3285434
v -0.09999694 0 0.3212213
v -0.2999969 0 0.3212213
v -0.07499694 0.23125 0.09622137
v -0.07499694 0.025 0.2858663
v -0.09999694 0.01767807 0.3285434
v -0.09374695 0.236742 0.1094794
v -0.3249969 0.025 0.2858663
v -0.3249969 0.23125 0.09622137
v -0.3062469 0.236742 0.1094794
v -0.2999969 0.01767807 0.3285434
v -0.07499694 0.23125 0.09622137
v -0.09374695 0.236742 0.1094794
v -0.09374695 0.25 0.07747136
v -0.2999969 0.25 -0.1287786
v -0.3062469 0.25 0.07747136
v -0.3249969 0.23125 0.09622137
v -0.3249969 0.225 -0.1287786
v -0.09999694 0.25 -0.1287786
v -0.09999694 0.225 -0.1537786
v -0.07499694 0.225 -0.1287786
v -0.09999694 0 -0.1287786
v -0.07499694 0.025 -0.1287786
v -0.09999694 0.025 -0.1537786
v -0.09374695 0.25 0.07747136
v -0.09999694 0.25 -0.1287786
v -0.07499694 0.225 -0.1287786
v -0.07499694 0.23125 0.09622137
v 0.3375 1.044193 0.2027213
v -0.3375 1.044193 0.2027213
v -0.3375 1.044193 -0.2022786
v 0.3375 1.044193 -0.2022786
v 0.45 1.993193 -0.2787786
v -0.45 1.993193 -0.2787786
v -0.45 1.672315 -0.2787786
v 0.45 1.672315 -0.2787786
v -0.45 1.34934 -0.2787786
v 0.45 1.34934 -0.2787786
v 0.5 1.65657 0.3071566
v 0.5 1.993193 0.6712213
v 0.5 1.993193 -0.2287786
v 0.5 1.672315 -0.2287786
v 0.5 1.395609 0.08070247
v 0.5 1.34934 -0.2287786
v 0.5 1.741937 0.6712213
v -0.45 2.043193 -0.2287786
v 0.45 2.043193 -0.2287786
v 0.45 2.043193 0.6712213
v -0.45 2.043193 0.6712213
v -0.45 1.672315 -0.2787786
v -0.45 1.993193 -0.2787786
v -0.5 1.993193 -0.2287786
v -0.5 1.672315 -0.2287786
v -0.5 1.34934 -0.2287786
v -0.45 1.34934 -0.2787786
v 0.45 2.043193 -0.2287786
v -0.45 2.043193 -0.2287786
v -0.45 1.993193 -0.2787786
v 0.45 1.993193 -0.2787786
v 0.5 1.672315 -0.2287786
v 0.5 1.993193 -0.2287786
v 0.45 1.993193 -0.2787786
v 0.45 1.672315 -0.2787786
v 0.45 1.34934 -0.2787786
v 0.5 1.34934 -0.2287786
v -0.45 2.043193 0.6712213
v 0.45 2.043193 0.6712213
v 0.45 1.993193 0.7212213
v -0.45 1.993193 0.7212213
v -0.45 2.043193 -0.2287786
v -0.45 2.043193 0.6712213
v -0.5 1.993193 0.6712213
v -0.5 1.993193 -0.2287786
v 0.45 2.043193 0.6712213
v 0.45 2.043193 -0.2287786
v 0.5 1.993193 -0.2287786
v 0.5 1.993193 0.6712213
v -0.45 1.993193 -0.2787786
v -0.45 2.043193 -0.2287786
v -0.5 1.993193 -0.2287786
v 0.45 1.993193 -0.2787786
v 0.5 1.993193 -0.2287786
v 0.45 2.043193 -0.2287786
v -0.45 1.993193 0.7212213
v -0.5 1.993193 0.6712213
v -0.45 2.043193 0.6712213
v 0.45 1.993193 0.7212213
v 0.45 2.043193 0.6712213
v 0.5 1.993193 0.6712213
v -0.4999999 1.395609 0.08070247
v -0.5 1.34934 -0.2287786
v -0.5 1.672315 -0.2287786
v -0.5 1.65657 0.3071567
v -0.5 1.993193 -0.2287786
v -0.5 1.993193 0.6712213
v -0.5 1.767738 0.6712213
v 0.45 1.993193 0.7212213
v 0.5 1.993193 0.6712213
v 0.5 1.741937 0.6712213
v 0.45 1.737729 0.7212214
v -0.45 1.778106 0.7212214
v -0.5 1.767738 0.6712213
v -0.5 1.993193 0.6712213
v -0.45 1.993193 0.7212213
v -0.3992156 1.890472 0.7212214
v -0.2898268 1.918303 0.7212214
v -0.2758293 1.868424 0.7212214
v -0.45 1.993193 0.7212213
v -0.45 1.778106 0.7212214
v 0.00572595 1.903047 0.7212214
v 0.0101414 1.805502 0.7212214
v 0.45 1.993193 0.7212213
v 0.2423798 1.829914 0.7212214
v 0.45 1.737729 0.7212214
v 0.1863152 1.793702 0.7212214
v 0.8948272 1.03057 0.1762358
v 0.8947645 0.8685699 0.1762358
v 0.5797644 0.8686913 0.1762358
v 0.5798269 1.030691 0.1762358
v 0.562327 1.030698 0.1587358
v 0.5622644 0.868698 0.1587358
v 0.5622644 0.868698 -0.1562642
v 0.562327 1.030698 -0.1562642
v 0.5798269 1.030691 -0.1737642
v 0.5797644 0.8686913 -0.1737642
v 0.8947645 0.8685699 -0.1737642
v 0.8948272 1.03057 -0.1737642
v 0.9123271 1.030563 -0.1562642
v 0.9122644 0.8685631 -0.1562642
v 0.9122644 0.8685631 0.1587358
v 0.9123271 1.030563 0.1587358
v 0.8947612 0.8595698 0.1587358
v 0.8947612 0.8595698 -0.1562642
v 0.579761 0.8596912 -0.1562642
v 0.579761 0.8596912 0.1587358
v 0.8948306 1.03957 -0.1562642
v 0.8948306 1.03957 0.1587358
v 0.5798304 1.039691 0.1587358
v 0.5798304 1.039691 -0.1562642
v 0.9123271 1.030563 0.1587358
v 0.9122644 0.8685631 0.1587358
v 0.8947645 0.8685699 0.1762358
v 0.8948272 1.03057 0.1762358
v 0.5622644 0.868698 0.1587358
v 0.562327 1.030698 0.1587358
v 0.5798269 1.030691 0.1762358
v 0.5797644 0.8686913 0.1762358
v 0.562327 1.030698 -0.1562642
v 0.5622644 0.868698 -0.1562642
v 0.5797644 0.8686913 -0.1737642
v 0.5798269 1.030691 -0.1737642
v 0.9122644 0.8685631 -0.1562642
v 0.9123271 1.030563 -0.1562642
v 0.8948272 1.03057 -0.1737642
v 0.8947645 0.8685699 -0.1737642
v 0.9122644 0.8685631 0.1587358
v 0.9122644 0.8685631 -0.1562642
v 0.8947612 0.8595698 -0.1562642
v 0.8947612 0.8595698 0.1587358
v 0.5622644 0.868698 -0.1562642
v 0.5622644 0.868698 0.1587358
v 0.579761 0.8596912 0.1587358
v 0.579761 0.8596912 -0.1562642
v 0.5622644 0.868698 0.1587358
v 0.5797644 0.8686913 0.1762358
v 0.579761 0.8596912 0.1587358
v 0.5797644 0.8686913 0.1762358
v 0.8947645 0.8685699 0.1762358
v 0.8947612 0.8595698 0.1587358
v 0.579761 0.8596912 0.1587358
v 0.8947645 0.8685699 0.1762358
v 0.9122644 0.8685631 0.1587358
v 0.8947612 0.8595698 0.1587358
v 0.9122644 0.8685631 -0.1562642
v 0.8947645 0.8685699 -0.1737642
v 0.8947612 0.8595698 -0.1562642
v 0.8947645 0.8685699 -0.1737642
v 0.5797644 0.8686913 -0.1737642
v 0.579761 0.8596912 -0.1562642
v 0.8947612 0.8595698 -0.1562642
v 0.5797644 0.8686913 -0.1737642
v 0.5622644 0.868698 -0.1562642
v 0.579761 0.8596912 -0.1562642
v 0.9123271 1.030563 -0.1562642
v 0.9123271 1.030563 0.1587358
v 0.8948306 1.03957 0.1587358
v 0.8948306 1.03957 -0.1562642
v 0.562327 1.030698 0.1587358
v 0.562327 1.030698 -0.1562642
v 0.5798304 1.039691 -0.1562642
v 0.5798304 1.039691 0.1587358
v 0.9123271 1.030563 0.1587358
v 0.8948272 1.03057 0.1762358
v 0.8948306 1.03957 0.1587358
v 0.8948272 1.03057 0.1762358
v 0.5798269 1.030691 0.1762358
v 0.5798304 1.039691 0.1587358
v 0.8948306 1.03957 0.1587358
v 0.5798269 1.030691 0.1762358
v 0.562327 1.030698 0.1587358
v 0.5798304 1.039691 0.1587358
v 0.562327 1.030698 -0.1562642
v 0.5798269 1.030691 -0.1737642
v 0.5798304 1.039691 -0.1562642
v 0.5798269 1.030691 -0.1737642
v 0.8948272 1.03057 -0.1737642
v 0.8948306 1.03957 -0.1562642
v 0.5798304 1.039691 -0.1562642
v 0.8948272 1.03057 -0.1737642
v 0.9123271 1.030563 -0.1562642
v 0.8948306 1.03957 -0.1562642
v -0.8948272 1.03057 0.1762358
v -0.5798269 1.030691 0.1762358
v -0.5797644 0.8686913 0.1762358
v -0.8947645 0.8685699 0.1762358
v -0.562327 1.030698 0.1587358
v -0.562327 1.030698 -0.1562642
v -0.5622644 0.868698 -0.1562642
v -0.5622644 0.868698 0.1587358
v -0.5798269 1.030691 -0.1737642
v -0.8948272 1.03057 -0.1737642
v -0.8947645 0.8685699 -0.1737642
v -0.5797644 0.8686913 -0.1737642
v -0.9123271 1.030563 -0.1562642
v -0.9123271 1.030563 0.1587358
v -0.9122644 0.8685631 0.1587358
v -0.9122644 0.8685631 -0.1562642
v -0.8947612 0.8595698 0.1587358
v -0.579761 0.8596912 0.1587358
v -0.579761 0.8596912 -0.1562642
v -0.8947612 0.8595698 -0.1562642
v -0.8948306 1.03957 -0.1562642
v -0.5798304 1.039691 -0.1562642
v -0.5798304 1.039691 0.1587358
v -0.8948306 1.03957 0.1587358
v -0.9123271 1.030563 0.1587358
v -0.8948272 1.03057 0.1762358
v -0.8947645 0.8685699 0.1762358
v -0.9122644 0.8685631 0.1587358
v -0.5622644 0.868698 0.1587358
v -0.5797644 0.8686913 0.1762358
v -0.5798269 1.030691 0.1762358
v -0.562327 1.030698 0.1587358
v -0.562327 1.030698 -0.1562642
v -0.5798269 1.030691 -0.1737642
v -0.5797644 0.8686913 -0.1737642
v -0.5622644 0.868698 -0.1562642
v -0.9122644 0.8685631 -0.1562642
v -0.8947645 0.8685699 -0.1737642
v -0.8948272 1.03057 -0.1737642
v -0.9123271 1.030563 -0.1562642
v -0.9122644 0.8685631 0.1587358
v -0.8947612 0.8595698 0.1587358
v -0.8947612 0.8595698 -0.1562642
v -0.9122644 0.8685631 -0.1562642
v -0.5622644 0.868698 -0.1562642
v -0.579761 0.8596912 -0.1562642
v -0.579761 0.8596912 0.1587358
v -0.5622644 0.868698 0.1587358
v -0.5622644 0.868698 0.1587358
v -0.579761 0.8596912 0.1587358
v -0.5797644 0.8686913 0.1762358
v -0.5797644 0.8686913 0.1762358
v -0.579761 0.8596912 0.1587358
v -0.8947612 0.8595698 0.1587358
v -0.8947645 0.8685699 0.1762358
v -0.8947645 0.8685699 0.1762358
v -0.8947612 0.8595698 0.1587358
v -0.9122644 0.8685631 0.1587358
v -0.9122644 0.8685631 -0.1562642
v -0.8947612 0.8595698 -0.1562642
v -0.8947645 0.8685699 -0.1737642
v -0.8947645 0.8685699 -0.1737642
v -0.8947612 0.8595698 -0.1562642
v -0.579761 0.8596912 -0.1562642
v -0.5797644 0.8686913 -0.1737642
v -0.5797644 0.8686913 -0.1737642
v -0.579761 0.8596912 -0.1562642
v -0.5622644 0.868698 -0.1562642
v -0.9123271 1.030563 -0.1562642
v -0.8948306 1.03957 -0.1562642
v -0.8948306 1.03957 0.1587358
v -0.9123271 1.030563 0.1587358
v -0.562327 1.030698 0.1587358
v -0.5798304 1.039691 0.1587358
v -0.5798304 1.039691 -0.1562642
v -0.562327 1.030698 -0.1562642
v -0.9123271 1.030563 0.1587358
v -0.8948306 1.03957 0.1587358
v -0.8948272 1.03057 0.1762358
v -0.8948272 1.03057 0.1762358
v -0.8948306 1.03957 0.1587358
v -0.5798304 1.039691 0.1587358
v -0.5798269 1.030691 0.1762358
v -0.5798269 1.030691 0.1762358
v -0.5798304 1.039691 0.1587358
v -0.562327 1.030698 0.1587358
v -0.562327 1.030698 -0.1562642
v -0.5798304 1.039691 -0.1562642
v -0.5798269 1.030691 -0.1737642
v -0.5798269 1.030691 -0.1737642
v -0.5798304 1.039691 -0.1562642
v -0.8948306 1.03957 -0.1562642
v -0.8948272 1.03057 -0.1737642
v -0.8948272 1.03057 -0.1737642
v -0.8948306 1.03957 -0.1562642
v -0.9123271 1.030563 -0.1562642
v 0.3375 1.044193 -0.2022786
v -0.3375 1.044193 -0.2022786
v -0.3375 1.044193 0.2027213
v 0.3375 1.044193 0.2027213
v 0.3375001 0.3316929 0.2252214
v -0.3374998 0.3316929 0.2252214
v -0.3374998 1.006693 0.2252214
v 0.3375001 1.006693 0.2252214
v 0.3375001 1.006693 -0.2247787
v -0.3374998 1.006693 -0.2247787
v -0.3374998 0.3316929 -0.2247787
v 0.3375001 0.3316929 -0.2247787
v 0.3375001 0.2941928 -0.2022786
v -0.3374998 0.2941928 -0.2022786
v -0.3374998 0.2941928 0.2027213
v 0.3375001 0.2941928 0.2027213
v -0.3749998 0.3316929 0.2027213
v -0.3749998 0.3316929 -0.2022786
v -0.3749998 1.006693 -0.2022786
v -0.3749998 1.006693 0.2027213
v 0.3750001 0.3316929 -0.2022786
v 0.3750001 0.3316929 0.2027213
v 0.3750001 1.006693 0.2027213
v 0.3750001 1.006693 -0.2022786
v 0.3375001 0.2941928 0.2027213
v -0.3374998 0.2941928 0.2027213
v -0.3374998 0.3316929 0.2252214
v 0.3375001 0.3316929 0.2252214
v -0.3375 1.044193 0.2027213
v 0.3375 1.044193 0.2027213
v 0.3375001 1.006693 0.2252214
v -0.3374998 1.006693 0.2252214
v 0.3375 1.044193 -0.2022786
v -0.3375 1.044193 -0.2022786
v -0.3374998 1.006693 -0.2247787
v 0.3375001 1.006693 -0.2247787
v -0.3374998 0.2941928 -0.2022786
v 0.3375001 0.2941928 -0.2022786
v 0.3375001 0.3316929 -0.2247787
v -0.3374998 0.3316929 -0.2247787
v -0.3374998 0.2941928 0.2027213
v -0.3374998 0.2941928 -0.2022786
v -0.3749998 0.3316929 -0.2022786
v -0.3749998 0.3316929 0.2027213
v -0.3375 1.044193 -0.2022786
v -0.3375 1.044193 0.2027213
v -0.3749998 1.006693 0.2027213
v -0.3749998 1.006693 -0.2022786
v -0.3375 1.044193 0.2027213
v -0.3374998 1.006693 0.2252214
v -0.3749998 1.006693 0.2027213
v -0.3374998 1.006693 0.2252214
v -0.3374998 0.3316929 0.2252214
v -0.3749998 0.3316929 0.2027213
v -0.3749998 1.006693 0.2027213
v -0.3374998 0.3316929 0.2252214
v -0.3374998 0.2941928 0.2027213
v -0.3749998 0.3316929 0.2027213
v -0.3374998 0.2941928 -0.2022786
v -0.3374998 0.3316929 -0.2247787
v -0.3749998 0.3316929 -0.2022786
v -0.3374998 0.3316929 -0.2247787
v -0.3374998 1.006693 -0.2247787
v -0.3749998 1.006693 -0.2022786
v -0.3749998 0.3316929 -0.2022786
v -0.3374998 1.006693 -0.2247787
v -0.3375 1.044193 -0.2022786
v -0.3749998 1.006693 -0.2022786
v 0.3375001 0.2941928 -0.2022786
v 0.3375001 0.2941928 0.2027213
v 0.3750001 0.3316929 0.2027213
v 0.3750001 0.3316929 -0.2022786
v 0.3375 1.044193 0.2027213
v 0.3375 1.044193 -0.2022786
v 0.3750001 1.006693 -0.2022786
v 0.3750001 1.006693 0.2027213
v 0.3375001 0.2941928 0.2027213
v 0.3375001 0.3316929 0.2252214
v 0.3750001 0.3316929 0.2027213
v 0.3375001 0.3316929 0.2252214
v 0.3375001 1.006693 0.2252214
v 0.3750001 1.006693 0.2027213
v 0.3750001 0.3316929 0.2027213
v 0.3375001 1.006693 0.2252214
v 0.3375 1.044193 0.2027213
v 0.3750001 1.006693 0.2027213
v 0.3375 1.044193 -0.2022786
v 0.3375001 1.006693 -0.2247787
v 0.3750001 1.006693 -0.2022786
v 0.3375001 1.006693 -0.2247787
v 0.3750001 0.3316929 -0.2022786
v 0.3750001 1.006693 -0.2022786
v 0.3375001 0.3316929 -0.2247787
v 0.3375001 0.3316929 -0.2247787
v 0.3375001 0.2941928 -0.2022786
v 0.3750001 0.3316929 -0.2022786
vt 0.01565284 0.01560752
vt 0.98458 0.01560752
vt 0.98458 0.4999972
vt 0.01565284 0.4999972
vt 0.98458 0.7528626
vt 0.4891984 0.7823531
vt 0.7970703 0.8500829
vt 0.2995322 0.7696508
vt 0.01565284 0.7094001
vt 0.9299064 0.8738161
vt 0.81214 0.9037735
vt 0.493952 0.887352
vt 0.2391738 0.8086299
vt 0 0
vt 0 0
vt 0 0
vt 0 0
vt 0 0
vt 0 0
vt 0 0
vt 0 0
vt 0 0
vt 0 0
vt 0 0
vt 0 1
vt 0 1
vt 0 1
vt 0 1
vt 0 1
vt 0 1
vt 0 1
vt 0 1
vt 0 1
vt 0 1
vt 0 1
vt 0 1
vt 0 1
vt 0 1
vt 0 1
vt 0 1
vt 0 1
vt 0 1
vt 0 1
vt 0 1
vt 0 1
vt 0 1
vt 0 1
vt 0 1
vt 0 0
vt 0 0
vt 0 0
vt 0 0
vt 0 0
vt 0 0
vt 0 0
vt 0 1
vt 0 1
vt 0 1
vt 0 1
vt 0 1
vt 0 1
vt 0 1
vt 0 1
vt 0 1
vt 0 1
vt 0 1
vt 0 1
vt 0 1
vt 0 1
vt 0 1
vt 0 1
vt 0 0
vt 0 0
vt 0 0
vt 0 0
vt 0 1
vt 0 1
vt 0 1
vt 0 1
vt 0 1
vt 0 1
vt 0 1
vt 0 1
vt 0 0
vt 0 0
vt 0 0
vt 0 0
vt 0 0
vt 0 0
vt 0 0
vt 0 0
vt 0 0
vt 0 0
vt 0 0
vt 0 0
vt 0 0
vt 0 0
vt 0 0
vt 0 0
vt 0 0
vt 0 0
vt 0 0
vt 0 0
vt 0 0
vt 0 0
vt 0 0
vt 0 0
vt 0 0
vt 0 0
vt 0 0
vt 0 0
vt 0 0
vt 0 0
vt 0 0
vt 0 0
vt 0 0
vt 0 0
vt 0 0
vt 0 0
vt 0 0
vt 0 0
vt 0 0
vt 0 0
vt 0 0
vt 0 0
vt 0 0
vt 0 0
vt 0 0
vt 0 0
vt 0 0
vt 0 0
vt 0 0
vt 0 0
vt 0 0
vt 0 0
vt 0 0
vt 0 0
vt 0 0
vt 0 0
vt 0 0
vt 0 0
vt 0 0
vt 0 0
vt 0 0
vt 0 0
vt 0 0
vt 0 0
vt 0 0
vt 0 0
vt 0 0
vt 0 0
vt 0 0
vt 0 0
vt 0 0
vt 0 0
vt 0 0
vt 0 0
vt 0 0
vt 0 0
vt 0 0
vt 0 0
vt 0 0
vt 0 0
vt 0 0
vt 0 0
vt 0 0
vt 0 0
vt 0 0
vt 0 0
vt 0 0
vt 0 0
vt 0 0
vt 0 0
vt 0 0
vt 0 0
vt 0 0
vt 0 0
vt 0 0
vt 0 0
vt 0 0
vt 0 0
vt 0 0
vt 0 0
vt 0 0
vt 0 0
vt 0 0
vt 0 0
vt 0 0
vt 0 0
vt 0 0
vt 0 0
vt 0 0
vt 0 0
vt 0 0
vt 0 0
vt 0 0
vt 0 0
vt 0 0
vt 0 0
vt 0 0
vt 0 0
vt 0 0
vt 0 0
vt 0 0
vt 0 0
vt 0 0
vt 0 0
vt 0 0
vt 0 0
vt 0 0
vt 0 0
vt 0 0
vt 0 0
vt 0 0
vt 0 0
vt 0 0
vt 0 0
vt 0 0
vt 0 0
vt 0 0
vt 0 0
vt 0 0
vt 0 0
vt 0 0
vt 0 0
vt 0 0
vt 0 0
vt 0 0
vt 0 0
vt 0 0
vt 0 0
vt 0 0
vt 0 0
vt 0 0
vt 0 0
vt 0 0
vt 0 0
vt 0 0
vt 0 0
vt 0 0
vt 0 0
vt 0 0
vt 0 0
vt 0 0
vt 0 0
vt 0 0
vt 0 0
vt 0 0
vt 0 0
vt 0 0
vt 0 0
vt 0 0
vt 0 0
vt 0 0
vt 0 0
vt 0 0
vt 0 0
vt 0 0
vt 0 0
vt 0 0
vt 0 0
vt 0 0
vt 0 0
vt 0 0
vt 0 0
vt 0 0
vt 0 0
vt 0 0
vt 0 0
vt 0 0
vt 0 0
vt 0 0
vt 0 0
vt 0 0
vt 0 0
vt 0 0
vt 0 0
vt 0 0
vt 0 0
vt 0 0
vt 0 0
vt 0 0
vt 0 0
vt 0 0
vt 0 0
vt 0 0
vt 0 0
vt 0 0
vt 0 0
vt 0 0
vt 0 0
vt 0 0
vt 0 0
vt 0 0
vt 0 0
vt 0 0
vt 0 0
vt 0 0
vt 0 0
vt 0.02259403 0.9882813
vt 0.4774936 0.9882813
vt 0.4774936 0.9882813
vt 0.02259403 0.9882813
vt 0.3227518 0.9359503
vt 0.1772608 0.9359503
vt 0.1772608 0.6250876
vt 0.3227518 0.6250876
vt 0.1772608 0.3121944
vt 0.3227518 0.3121944
vt 0.4304931 0.6098343
vt 0.4892762 0.9359503
vt 0.3439591 0.9359503
vt 0.3439591 0.6250876
vt 0.393929 0.3570196
vt 0.3439591 0.3121945
vt 0.4892762 0.6925371
vt 0.8227032 0.9359503
vt 0.6773862 0.9359501
vt 0.6773862 0.0640423
vt 0.8227033 0.06404262
vt 0.1772608 0.6250876
vt 0.1772608 0.9359503
vt 0.1691779 0.9359503
vt 0.1691779 0.6250876
vt 0.1691779 0.3121945
vt 0.1772608 0.3121944
vt 0.3227518 0.9843895
vt 0.1772608 0.9843895
vt 0.1772608 0.9359503
vt 0.3227518 0.9359503
vt 0.3308346 0.6250876
vt 0.3308346 0.9359503
vt 0.3227518 0.9359503
vt 0.3227518 0.6250876
vt 0.3227518 0.3121944
vt 0.3308346 0.3121945
vt 0.1559963 0.9843895
vt 0.01067921 0.9843895
vt 0.01067921 0.9359503
vt 0.1559963 0.9359503
vt 0.8227032 0.9359503
vt 0.8227033 0.06404262
vt 0.8307765 0.06404262
vt 0.8307765 0.9359503
vt 0.6773862 0.0640423
vt 0.6773862 0.9359501
vt 0.669313 0.9359501
vt 0.6693131 0.0640423
vt 0.1772608 0.9359503
vt 0.1772608 0.9843895
vt 0.1691779 0.9359503
vt 0.3227518 0.9359503
vt 0.3308346 0.9359503
vt 0.3227518 0.9843895
vt 0.1559963 0.9359503
vt 0.1640695 0.9359503
vt 0.1559963 0.9843895
vt 0.01067921 0.9359503
vt 0.01067921 0.9843895
vt 0.002606046 0.9359503
vt 0.6053935 0.3570196
vt 0.6547055 0.3121945
vt 0.6547055 0.6250876
vt 0.5693108 0.6098343
vt 0.6547055 0.9359503
vt 0.5113016 0.9359503
vt 0.5113016 0.7175332
vt 0.01067921 0.9359503
vt 0.002606046 0.9359503
vt 0.002606046 0.6925371
vt 0.01067921 0.6884601
vt 0.1559963 0.7275767
vt 0.1640695 0.7175332
vt 0.1640695 0.9359503
vt 0.1559963 0.9359503
vt 0.1477965 0.8364357
vt 0.1301342 0.8633976
vt 0.1278741 0.8150757
vt 0.1559963 0.9359503
vt 0.1559963 0.7275767
vt 0.08241322 0.848618
vt 0.08170028 0.7541184
vt 0.01067921 0.9359503
vt 0.04420228 0.7777677
vt 0.01067921 0.6884601
vt 0.05325466 0.7426862
vt 0.007810786 0.04644021
vt 0.1594782 0.04644021
vt 0.1594782 0.9535598
vt 0.007810786 0.9535598
vt 0.674198 0.05000001
vt 0.8258312 0.05000001
vt 0.8258312 0.95
vt 0.674198 0.95
vt 0.3259681 0.9546536
vt 0.1742712 0.9546536
vt 0.1742712 0.04538897
vt 0.3259681 0.04538897
vt 0.8409751 0.05000001
vt 0.9924381 0.05000001
vt 0.9924381 0.95
vt 0.8409751 0.95
vt 0.5077311 0.0478456
vt 0.6581256 0.0478456
vt 0.6581256 0.9521545
vt 0.5077311 0.9521545
vt 0.3418158 0.0478456
vt 0.4915789 0.0478456
vt 0.4915789 0.9521545
vt 0.3418158 0.9521545
vt 0.007807786 0.03721598
vt 0.1594782 0.03721598
vt 0.1594782 0.04644021
vt 0.007810786 0.04644021
vt 0.1594782 0.9627841
vt 0.007810786 0.9627841
vt 0.007810786 0.9535598
vt 0.1594782 0.9535598
vt 0.3259681 0.964245
vt 0.1742712 0.964245
vt 0.1742712 0.9546536
vt 0.3259681 0.9546536
vt 0.1742712 0.03514549
vt 0.3259681 0.03514549
vt 0.3259681 0.04538897
vt 0.1742712 0.04538897
vt 0.9924381 0.95
vt 0.9924381 0.05000001
vt 0.9949184 0.05000001
vt 0.9949184 0.95
vt 0.8258312 0.95
vt 0.8258312 0.05000001
vt 0.8286568 0.05000001
vt 0.8286568 0.95
vt 0.1594782 0.9627841
vt 0.1594782 0.9535598
vt 0.1616756 0.9535598
vt 0.1594782 0.9535598
vt 0.1594782 0.04644021
vt 0.1616756 0.04644021
vt 0.1616756 0.9535598
vt 0.1594782 0.04644021
vt 0.1594782 0.03721598
vt 0.1616756 0.04644021
vt 0.1742712 0.03514549
vt 0.1742712 0.04538897
vt 0.1717871 0.04538897
vt 0.1742712 0.04538897
vt 0.1742712 0.9546536
vt 0.1717871 0.9546536
vt 0.1717871 0.04538897
vt 0.1742712 0.9546536
vt 0.1742712 0.964245
vt 0.1717871 0.9546536
vt 0.8409751 0.05000001
vt 0.8409751 0.95
vt 0.8384948 0.95
vt 0.8384948 0.05000001
vt 0.674198 0.05000001
vt 0.674198 0.95
vt 0.6713725 0.95
vt 0.6713725 0.05000001
vt 0.007807786 0.03721598
vt 0.007810786 0.04644021
vt 0.005613372 0.04644021
vt 0.007810786 0.04644021
vt 0.007810786 0.9535598
vt 0.005613372 0.9535598
vt 0.005613372 0.04644021
vt 0.007810786 0.9535598
vt 0.007810786 0.9627841
vt 0.005613372 0.9535598
vt 0.3259681 0.964245
vt 0.3259681 0.9546536
vt 0.3284523 0.9546536
vt 0.3259681 0.9546536
vt 0.3259681 0.04538897
vt 0.3284523 0.04538897
vt 0.3284523 0.9546536
vt 0.3259681 0.04538897
vt 0.3259681 0.03514549
vt 0.3284523 0.04538897
vt 0.007810786 0.04644021
vt 0.007810786 0.9535598
vt 0.1594782 0.9535598
vt 0.1594782 0.04644021
vt 0.674198 0.05000001
vt 0.674198 0.95
vt 0.8258312 0.95
vt 0.8258312 0.05000001
vt 0.3259681 0.9546536
vt 0.3259681 0.04538897
vt 0.1742712 0.04538897
vt 0.1742712 0.9546536
vt 0.8409751 0.05000001
vt 0.8409751 0.95
vt 0.9924381 0.95
vt 0.9924381 0.05000001
vt 0.5077311 0.0478456
vt 0.5077311 0.9521545
vt 0.6581256 0.9521545
vt 0.6581256 0.0478456
vt 0.3418158 0.0478456
vt 0.3418158 0.9521545
vt 0.4915789 0.9521545
vt 0.4915789 0.0478456
vt 0.007807786 0.03721598
vt 0.007810786 0.04644021
vt 0.1594782 0.04644021
vt 0.1594782 0.03721598
vt 0.1594782 0.9627841
vt 0.1594782 0.9535598
vt 0.007810786 0.9535598
vt 0.007810786 0.9627841
vt 0.3259681 0.964245
vt 0.3259681 0.9546536
vt 0.1742712 0.9546536
vt 0.1742712 0.964245
vt 0.1742712 0.03514549
vt 0.1742712 0.04538897
vt 0.3259681 0.04538897
vt 0.3259681 0.03514549
vt 0.9924381 0.95
vt 0.9949184 0.95
vt 0.9949184 0.05000001
vt 0.9924381 0.05000001
vt 0.8258312 0.95
vt 0.8286568 0.95
vt 0.8286568 0.05000001
vt 0.8258312 0.05000001
vt 0.1594782 0.9627841
vt 0.1616756 0.9535598
vt 0.1594782 0.9535598
vt 0.1594782 0.9535598
vt 0.1616756 0.9535598
vt 0.1616756 0.04644021
vt 0.1594782 0.04644021
vt 0.1594782 0.04644021
vt 0.1616756 0.04644021
vt 0.1594782 0.03721598
vt 0.1742712 0.03514549
vt 0.1717871 0.04538897
vt 0.1742712 0.04538897
vt 0.1742712 0.04538897
vt 0.1717871 0.04538897
vt 0.1717871 0.9546536
vt 0.1742712 0.9546536
vt 0.1742712 0.9546536
vt 0.1717871 0.9546536
vt 0.1742712 0.964245
vt 0.8409751 0.05000001
vt 0.8384948 0.05000001
vt 0.8384948 0.95
vt 0.8409751 0.95
vt 0.674198 0.05000001
vt 0.6713725 0.05000001
vt 0.6713725 0.95
vt 0.674198 0.95
vt 0.007807786 0.03721598
vt 0.005613372 0.04644021
vt 0.007810786 0.04644021
vt 0.007810786 0.04644021
vt 0.005613372 0.04644021
vt 0.005613372 0.9535598
vt 0.007810786 0.9535598
vt 0.007810786 0.9535598
vt 0.005613372 0.9535598
vt 0.007810786 0.9627841
vt 0.3259681 0.964245
vt 0.3284523 0.9546536
vt 0.3259681 0.9546536
vt 0.3259681 0.9546536
vt 0.3284523 0.9546536
vt 0.3284523 0.04538897
vt 0.3259681 0.04538897
vt 0.3259681 0.04538897
vt 0.3284523 0.04538897
vt 0.3259681 0.03514549
vt 0.02259403 0.9882813
vt 0.4774936 0.9882813
vt 0.4774936 0.9882813
vt 0.02259403 0.9882813
vt 0.02343236 0.5232201
vt 0.4784347 0.5232201
vt 0.4784347 0.9767799
vt 0.02343236 0.9767799
vt 0.9779043 0.9773268
vt 0.5228137 0.9773268
vt 0.5228137 0.5226945
vt 0.9779043 0.5226945
vt 1.522925 0.5118577
vt 1.977314 0.5118577
vt 1.977314 0.5118577
vt 1.522925 0.5118577
vt 1.523193 0.0239228
vt 1.974377 0.0239228
vt 1.974377 0.4760772
vt 1.523193 0.4760772
vt 1.025447 0.0239228
vt 1.474737 0.0239228
vt 1.474737 0.4760772
vt 1.025447 0.4760772
vt 0.02342336 0.518608
vt 0.4784347 0.518608
vt 0.4784347 0.5232201
vt 0.02343236 0.5232201
vt 0.4779642 0.9848367
vt 0.02301319 0.9848367
vt 0.02343236 0.9767799
vt 0.4784347 0.9767799
vt 0.5002491 0.9852019
vt 0.5001537 0.9852019
vt 0.5228137 0.9773268
vt 0.9779043 0.9773268
vt 0.5228137 0.5175728
vt 0.9779043 0.5175728
vt 0.9779043 0.5226945
vt 0.5228137 0.5226945
vt 1.977314 0.5118577
vt 1.977314 0.5118577
vt 1.984755 0.5118577
vt 1.984755 0.5118577
vt 0.5001537 0.9852019
vt 0.4779642 0.9848367
vt 0.4859703 0.9882813
vt 0.4859703 0.9882813
vt 0.4784347 0.981392
vt 0.4784347 0.9767799
vt 0.485027 0.9767799
vt 0.4784347 0.9767799
vt 0.4784347 0.5232201
vt 0.485027 0.5232201
vt 0.485027 0.9767799
vt 0.4784347 0.5232201
vt 0.4784347 0.518608
vt 0.485027 0.5232201
vt 0.5228137 0.5175728
vt 0.5228137 0.5226945
vt 0.5153612 0.5226945
vt 0.5228137 0.5226945
vt 0.5228137 0.9773268
vt 0.5153612 0.9773268
vt 0.5153612 0.5226945
vt 0.5228137 0.9773268
vt 0.5228137 0.9821225
vt 0.5153612 0.9773268
vt 1.522925 0.5118577
vt 1.522925 0.5118577
vt 1.515485 0.5118577
vt 1.515485 0.5118577
vt 0.02301319 0.9848367
vt 0.5002491 0.9852019
vt 0.01411736 0.9882813
vt 0.01411736 0.9882813
vt 0.02342336 0.518608
vt 0.02343236 0.5232201
vt 0.01684012 0.5232201
vt 0.02343236 0.5232201
vt 0.02343236 0.9767799
vt 0.01684012 0.9767799
vt 0.01684012 0.5232201
vt 0.02343236 0.9767799
vt 0.02343236 0.981392
vt 0.01684012 0.9767799
vt 0.9779043 0.9821225
vt 0.9779043 0.9773268
vt 0.9853569 0.9773268
vt 0.9779043 0.9773268
vt 0.9853569 0.5226945
vt 0.9853569 0.9773268
vt 0.9779043 0.5226945
vt 0.9779043 0.5226945
vt 0.9779043 0.5175728
vt 0.9853569 0.5226945
vn 0 0 1
vn 0 0 1
vn 0 0 1
vn 0 0 1
vn 0 0 1
vn 0 0 1
vn 0 0 1
vn 0 0 1
vn 0 0 1
vn 0 0 1
vn 0 0 1
vn 0 0 1
vn 0 0 1
vn -1 0 0
vn -1 0 0
vn -1 0 0
vn -1 0 0
vn -1 0 0
vn -1 0 0
vn -1 0 0
vn 0 -1 0
vn 0 -1 0
vn 0 -1 0
vn 0 -1 0
vn -0.7071068 0 0.7071068
vn -0.7071068 0 0.7071068
vn -0.7071068 0 0.7071068
vn -0.7071068 0 0.7071068
vn -0.7071069 0 0.7071066
vn -0.7071069 0 0.7071066
vn 0 -0.7071062 0.7071074
vn 0 -0.7071062 0.7071074
vn 0 -0.7071062 0.7071074
vn 0 -0.7071062 0.7071074
vn -0.7071075 -0.7071061 0
vn -0.7071075 -0.7071061 0
vn -0.7071075 -0.7071061 0
vn -0.7071075 -0.7071061 0
vn 0.7071075 -0.7071061 0
vn 0.7071075 -0.7071061 0
vn 0.7071075 -0.7071061 0
vn 0.7071075 -0.7071061 0
vn -0.577351 -0.5773499 0.5773499
vn -0.577351 -0.57735 0.57735
vn -0.577351 -0.5773499 0.5773499
vn 0.577351 -0.5773499 0.5773499
vn 0.577351 -0.5773499 0.5773499
vn 0.577351 -0.57735 0.57735
vn 1 0 0
vn 1 0 0
vn 1 0 0
vn 1 0 0
vn 1 0 0
vn 1 0 0
vn 1 0 0
vn 0.7071068 0 0.7071068
vn 0.7071068 0 0.7071068
vn 0.7071068 0 0.7071068
vn 0.7071068 0 0.7071068
vn 0.707107 0 0.7071065
vn 0.707107 0 0.7071065
vn 0 -0.7071062 -0.7071074
vn 0 -0.7071062 -0.7071074
vn 0 -0.7071062 -0.7071074
vn 0 -0.7071062 -0.7071074
vn -0.577351 -0.5773499 -0.5773499
vn -0.577351 -0.5773499 -0.5773499
vn -0.577351 -0.57735 -0.57735
vn 0.577351 -0.5773499 -0.5773499
vn 0.577351 -0.57735 -0.57735
vn 0.577351 -0.5773499 -0.5773499
vn 0 0 -1
vn 0 0 -1
vn 0 0 -1
vn 0 0 -1
vn -0.7071068 0 -0.7071068
vn -0.7071068 0 -0.7071068
vn -0.7071068 0 -0.7071068
vn -0.7071068 0 -0.7071068
vn 0.7071068 0 -0.7071068
vn 0.7071068 0 -0.7071068
vn 0.7071068 0 -0.7071068
vn 0.7071068 0 -0.7071068
vn 1 0 0
vn 1 0 0
vn 1 0 0
vn 1 0 0
vn 1 0 0
vn 0 1 0
vn 0 1 0
vn 0 1 0
vn 0 1 0
vn -1 0 0
vn -1 0 0
vn -1 0 0
vn -1 0 0
vn -1 0 0
vn 0 -1 0
vn 0 -1 0
vn 0 -1 0
vn 0 -1 0
vn 0 -1 0
vn 0 -1 0
vn 0 0 -1
vn 0 0 -1
vn 0 0 -1
vn 0 0 -1
vn 0 0.7071069 0.7071066
vn 0 0.7071069 0.7071066
vn 0 0.7071069 0.7071066
vn 0 0.7071069 0.7071066
vn 0.7071061 0 -0.7071074
vn 0.7071061 0 -0.7071074
vn 0.7071061 0 -0.7071074
vn 0.7071061 0 -0.7071074
vn 0 0.9238812 0.3826793
vn 0 0.9238812 0.3826793
vn 0 0.9238812 0.3826793
vn 0 0.9238812 0.3826793
vn 0 -0.7071064 -0.7071071
vn 0 -0.7071064 -0.7071071
vn 0 -0.7071064 -0.7071071
vn 0 -0.7071064 -0.7071071
vn -0.7071064 0 -0.7071071
vn -0.7071064 0 -0.7071071
vn -0.7071064 0 -0.7071071
vn -0.7071064 0 -0.7071071
vn 0 0.7071064 -0.7071071
vn 0 0.7071064 -0.7071071
vn 0 0.7071064 -0.7071071
vn 0 0.7071064 -0.7071071
vn 0.7262509 -0.6861098 0.04257741
vn 0.7262509 -0.6861098 0.04257741
vn 0.7262509 -0.6861098 0.04257741
vn 0.7262509 -0.6861099 0.04257741
vn 0.7065614 -0.7065622 -0.03925343
vn 0.7065614 -0.7065622 -0.03925343
vn 0.7065614 -0.7065622 -0.03925343
vn 0.7065614 -0.7065622 -0.03925343
vn -0.8605199 -0.1949347 0.4706442
vn -0.8605199 -0.1949347 0.4706442
vn -0.8605199 -0.1949347 0.4706442
vn 0.8605197 -0.1949347 0.4706446
vn 0.8605197 -0.1949347 0.4706446
vn 0.8605197 -0.1949347 0.4706446
vn -0.7065616 -0.7065619 -0.0392534
vn -0.7065616 -0.7065619 -0.0392534
vn -0.7065616 -0.7065619 -0.0392534
vn -0.7065616 -0.7065619 -0.0392534
vn -0.7262512 -0.6861095 0.04257738
vn -0.7262512 -0.6861095 0.04257738
vn -0.7262512 -0.6861095 0.04257738
vn -0.7262512 -0.6861095 0.04257738
vn -0.475967 0.8125196 0.3365523
vn -0.4759669 0.8125196 0.3365523
vn -0.475967 0.8125196 0.3365522
vn -0.5773501 -0.5773501 -0.5773506
vn -0.5773501 -0.5773501 -0.5773506
vn -0.5773501 -0.5773501 -0.5773506
vn -0.5773501 0.5773501 -0.5773506
vn -0.5773501 0.5773501 -0.5773506
vn -0.5773501 0.5773501 -0.5773506
vn 0 -0.3826624 0.9238883
vn 0 -0.3826624 0.9238883
vn 0 -0.3826624 0.9238883
vn 0 -0.3826624 0.9238883
vn 0.6696172 0.5094757 0.5404141
vn 0.6696172 0.5094756 0.540414
vn 0.6696172 0.5094756 0.540414
vn 0.6696172 0.5094757 0.5404141
vn -0.6696178 0.509475 0.540414
vn -0.6696178 0.5094749 0.540414
vn -0.6696178 0.5094749 0.540414
vn -0.6696178 0.509475 0.540414
vn 0.4759669 0.8125196 0.3365523
vn 0.475967 0.8125196 0.3365523
vn 0.4759669 0.8125196 0.3365522
vn -0.7113357 0.7025537 -0.02049115
vn -0.7113358 0.7025536 -0.02049115
vn -0.7113357 0.7025536 -0.02049115
vn -0.7113358 0.7025536 -0.02049115
vn 0.5773495 0.5773501 -0.5773512
vn 0.5773496 0.5773501 -0.5773511
vn 0.5773495 0.5773501 -0.5773512
vn 0.5773498 -0.5773502 -0.5773508
vn 0.5773498 -0.5773503 -0.5773509
vn 0.5773498 -0.5773502 -0.5773508
vn 0.711335 0.7025544 -0.02049109
vn 0.7113349 0.7025545 -0.02049109
vn 0.7113349 0.7025545 -0.02049108
vn 0.711335 0.7025543 -0.02049108
vn 1 0 0
vn 1 0 0
vn 1 0 0
vn 1 0 0
vn 1 0 0
vn 0 1 0
vn 0 1 0
vn 0 1 0
vn 0 1 0
vn -1 0 0
vn -1 0 0
vn -1 0 0
vn -1 0 0
vn -1 0 0
vn 0 -1 0
vn 0 -1 0
vn 0 -1 0
vn 0 -1 0
vn 0 -1 0
vn 0 -1 0
vn 0 0 -1
vn 0 0 -1
vn 0 0 -1
vn 0 0 -1
vn 0 0.7071069 0.7071066
vn 0 0.7071069 0.7071066
vn 0 0.7071068 0.7071067
vn 0 0.7071068 0.7071067
vn 0.7071064 0 -0.7071071
vn 0.7071064 0 -0.7071071
vn 0.7071064 0 -0.7071071
vn 0.7071064 0 -0.7071071
vn 0 0.9238812 0.3826793
vn 0 0.9238812 0.3826793
vn 0 0.9238812 0.3826793
vn 0 0.9238812 0.3826793
vn 0 -0.7071064 -0.7071071
vn 0 -0.7071064 -0.7071071
vn 0 -0.7071064 -0.7071071
vn 0 -0.7071064 -0.7071071
vn -0.7071061 0 -0.7071074
vn -0.7071061 0 -0.7071074
vn -0.7071061 0 -0.7071074
vn -0.7071061 0 -0.7071074
vn 0 0.7071064 -0.7071072
vn 0 0.7071064 -0.7071072
vn 0 0.7071064 -0.7071072
vn 0 0.7071064 -0.7071072
vn 0.7262515 -0.6861092 0.04257741
vn 0.7262515 -0.6861093 0.04257741
vn 0.7262515 -0.6861093 0.04257742
vn 0.7262515 -0.6861092 0.04257741
vn 0.7065617 -0.7065619 -0.03925342
vn 0.7065617 -0.7065619 -0.03925342
vn 0.7065617 -0.7065619 -0.03925342
vn 0.7065617 -0.7065619 -0.03925342
vn -0.8605197 -0.1949347 0.4706446
vn -0.8605197 -0.1949347 0.4706446
vn -0.8605197 -0.1949347 0.4706446
vn 0.8605199 -0.1949347 0.4706442
vn 0.8605199 -0.1949347 0.4706442
vn 0.8605199 -0.1949347 0.4706442
vn -0.7065626 -0.706561 -0.0392536
vn -0.7065626 -0.706561 -0.0392536
vn -0.7065626 -0.706561 -0.0392536
vn -0.7065626 -0.706561 -0.0392536
vn -0.7262518 -0.6861089 0.04257756
vn -0.7262518 -0.6861089 0.04257756
vn -0.7262518 -0.6861089 0.04257756
vn -0.7262518 -0.6861089 0.04257756
vn -0.4759666 0.8125198 0.336552
vn -0.4759666 0.8125198 0.3365521
vn -0.4759667 0.8125199 0.336552
vn -0.5773498 -0.5773502 -0.5773508
vn -0.5773498 -0.5773502 -0.5773508
vn -0.5773498 -0.5773503 -0.5773509
vn -0.5773495 0.5773501 -0.5773512
vn -0.5773496 0.5773501 -0.5773511
vn -0.5773495 0.5773501 -0.5773512
vn 0 -0.3826625 0.9238882
vn 0 -0.3826625 0.9238882
vn 0 -0.3826625 0.9238882
vn 0 -0.3826625 0.9238882
vn 0.6696178 0.5094749 0.540414
vn 0.6696178 0.5094749 0.540414
vn 0.6696178 0.509475 0.540414
vn 0.6696178 0.5094749 0.540414
vn -0.6696172 0.5094756 0.540414
vn -0.6696172 0.5094756 0.540414
vn -0.6696172 0.5094757 0.5404141
vn -0.6696172 0.5094756 0.540414
vn 0.4759669 0.8125196 0.3365523
vn 0.4759669 0.8125196 0.3365522
vn 0.4759669 0.8125196 0.3365523
vn -0.7113353 0.7025541 -0.02049109
vn -0.7113353 0.7025541 -0.0204911
vn -0.7113353 0.702554 -0.0204911
vn -0.7113353 0.702554 -0.02049109
vn 0.5773501 0.5773501 -0.5773506
vn 0.5773501 0.5773501 -0.5773506
vn 0.5773501 0.5773501 -0.5773506
vn 0.5773501 -0.5773501 -0.5773506
vn 0.5773501 -0.5773501 -0.5773506
vn 0.5773501 -0.5773501 -0.5773506
vn 0.7113357 0.7025537 -0.02049115
vn 0.7113357 0.7025537 -0.02049115
vn 0.7113356 0.7025537 -0.02049115
vn 0.7113357 0.7025537 -0.02049115
vn 0 1 0
vn 0 1 0
vn 0 1 0
vn 0 1 0
vn 0 0 -1
vn 0 0 -1
vn 0 0 -1
vn 0 0 -1
vn 0 0 -1
vn 0 0 -1
vn 1 0 0
vn 1 0 0
vn 1 0 0
vn 1 0 0
vn 1 0 0
vn 1 0 0
vn 1 0 0
vn 0 1 0
vn 0 1 0
vn 0 1 0
vn 0 1 0
vn -0.7071068 0 -0.7071067
vn -0.7071068 0 -0.7071067
vn -0.7071068 0 -0.7071067
vn -0.7071068 0 -0.7071067
vn -0.7071069 0 -0.7071066
vn -0.7071069 0 -0.7071066
vn 0 0.707108 -0.7071056
vn 0 0.707108 -0.7071056
vn 0 0.707108 -0.7071056
vn 0 0.707108 -0.7071056
vn 0.7071068 0 -0.7071067
vn 0.7071068 0 -0.7071067
vn 0.7071068 0 -0.7071067
vn 0.7071068 0 -0.7071067
vn 0.7071069 0 -0.7071066
vn 0.7071069 0 -0.7071066
vn 0 0.707108 0.7071056
vn 0 0.707108 0.7071056
vn 0 0.707108 0.7071056
vn 0 0.707108 0.7071056
vn -0.7071055 0.7071081 0
vn -0.7071055 0.7071081 0
vn -0.7071055 0.7071081 0
vn -0.7071055 0.7071081 0
vn 0.7071055 0.7071081 0
vn 0.7071055 0.7071081 0
vn 0.7071054 0.7071082 0
vn 0.7071055 0.7071081 0
vn -0.5773503 0.5773525 -0.5773481
vn -0.5773503 0.5773525 -0.5773481
vn -0.5773503 0.5773525 -0.5773481
vn 0.5773503 0.5773525 -0.5773481
vn 0.5773503 0.5773525 -0.5773481
vn 0.5773503 0.5773525 -0.5773481
vn -0.5773503 0.5773525 0.5773481
vn -0.5773503 0.5773525 0.5773481
vn -0.5773503 0.5773525 0.5773481
vn 0.5773503 0.5773525 0.5773481
vn 0.5773503 0.5773525 0.5773481
vn 0.5773503 0.5773525 0.5773481
vn -1 0 0
vn -1 0 0
vn -1 0 0
vn -1 0 0
vn -1 0 0
vn -1 0 0
vn -1 0 0
vn 0.7071073 0 0.7071062
vn 0.7071073 0 0.7071062
vn 0.7071073 0 0.7071062
vn 0.7071073 0 0.7071062
vn -0.7071072 0 0.7071064
vn -0.7071072 0 0.7071064
vn -0.7071072 0 0.7071064
vn -0.7071072 0 0.7071064
vn 0 0 1
vn 0 0 1
vn 0 0 1
vn 0 0 1
vn -1.746164E-06 0 1
vn 0 1.431459E-06 1
vn 0 0 1
vn 0 1.057919E-06 1
vn 0 0 1
vn 0 0 1
vn 0 0 1
vn 0 0 1
vn 0 0 1
vn 0 0 1
vn 0 0 1
vn -0.9999999 0.0003861045 0
vn -0.9999999 0.0003861045 0
vn -0.9999999 0.0003861045 0
vn -0.9999999 0.0003861045 0
vn 0 0 -1
vn 0 0 -1
vn 0 0 -1
vn 0 0 -1
vn 0.9999999 -0.0003872254 0
vn 0.9999999 -0.0003872254 0
vn 0.9999999 -0.0003872254 0
vn 0.9999999 -0.0003872254 0
vn -0.0003854052 -0.9999999 0
vn -0.0003854052 -0.9999999 0
vn -0.0003854052 -0.9999999 0
vn -0.0003854052 -0.9999999 0
vn 0.0003860109 0.9999999 0
vn 0.0003860109 0.9999999 0
vn 0.0003860109 0.9999999 0
vn 0.0003860109 0.9999999 0
vn 0.707109 -0.0002738439 0.7071046
vn 0.707109 -0.0002738439 0.7071046
vn 0.707109 -0.0002738439 0.7071045
vn 0.707109 -0.0002738439 0.7071046
vn -0.7071075 0.0002726545 0.7071061
vn -0.7071075 0.0002726545 0.7071061
vn -0.7071075 0.0002726545 0.7071061
vn -0.7071075 0.0002726545 0.707106
vn -0.7071077 0.0002726543 -0.7071058
vn -0.7071077 0.0002726543 -0.7071058
vn -0.7071077 0.0002726543 -0.7071058
vn -0.7071077 0.0002726543 -0.7071058
vn 0.707109 -0.0002738439 -0.7071046
vn 0.707109 -0.0002738439 -0.7071046
vn 0.707109 -0.0002738439 -0.7071046
vn 0.707109 -0.0002738439 -0.7071045
vn 0.4570111 -0.889461 0
vn 0.4570111 -0.889461 0
vn 0.4570111 -0.889461 0
vn 0.4570111 -0.889461 0
vn -0.457693 -0.8891103 0
vn -0.457693 -0.8891103 0
vn -0.457693 -0.8891103 0
vn -0.457693 -0.8891103 0
vn -0.4162265 -0.8085592 0.4159176
vn -0.4162265 -0.8085592 0.4159176
vn -0.4162266 -0.8085592 0.4159176
vn -0.0003427407 -0.8892862 0.4573512
vn -0.0003427407 -0.8892862 0.4573511
vn -0.0003427407 -0.8892862 0.4573512
vn -0.0003427407 -0.8892862 0.4573512
vn 0.4156095 -0.8088784 0.4159139
vn 0.4156095 -0.8088785 0.4159139
vn 0.4156095 -0.8088785 0.4159139
vn 0.4156094 -0.8088785 -0.4159139
vn 0.4156094 -0.8088785 -0.4159139
vn 0.4156095 -0.8088785 -0.4159139
vn -0.000342725 -0.8892862 -0.4573511
vn -0.000342725 -0.8892862 -0.4573512
vn -0.000342725 -0.8892862 -0.4573511
vn -0.000342725 -0.8892862 -0.4573512
vn -0.4162266 -0.8085591 -0.4159176
vn -0.4162266 -0.8085592 -0.4159176
vn -0.4162266 -0.8085592 -0.4159176
vn 0.457684 0.8891149 0
vn 0.457684 0.8891149 0
vn 0.457684 0.8891149 0
vn 0.457684 0.8891149 0
vn -0.4570125 0.8894603 0
vn -0.4570125 0.8894603 0
vn -0.4570125 0.8894603 0
vn -0.4570125 0.8894603 0
vn 0.4162199 0.8085644 0.4159141
vn 0.4162199 0.8085644 0.4159141
vn 0.4162199 0.8085644 0.4159141
vn 0.000342496 0.8892849 0.4573535
vn 0.000342496 0.8892849 0.4573534
vn 0.0003424961 0.8892849 0.4573534
vn 0.000342496 0.8892849 0.4573534
vn -0.4156054 0.8088713 0.4159319
vn -0.4156054 0.8088713 0.4159319
vn -0.4156054 0.8088713 0.4159319
vn -0.4156051 0.8088714 -0.4159321
vn -0.415605 0.8088714 -0.415932
vn -0.4156051 0.8088714 -0.415932
vn 0.0003424397 0.8892849 -0.4573534
vn 0.0003424397 0.8892849 -0.4573534
vn 0.0003424397 0.8892849 -0.4573534
vn 0.0003424397 0.8892849 -0.4573534
vn 0.416221 0.808564 -0.4159139
vn 0.416221 0.808564 -0.4159139
vn 0.4162211 0.808564 -0.4159139
vn 0 0 1
vn 0 0 1
vn 0 0 1
vn 0 0 1
vn 0.9999999 0.0003861045 0
vn 0.9999999 0.0003861045 0
vn 0.9999999 0.0003861045 0
vn 0.9999999 0.0003861045 0
vn 0 0 -1
vn 0 0 -1
vn 0 0 -1
vn 0 0 -1
vn -0.9999999 -0.0003872254 0
vn -0.9999999 -0.0003872254 0
vn -0.9999999 -0.0003872254 0
vn -0.9999999 -0.0003872254 0
vn 0.0003854052 -0.9999999 0
vn 0.0003854052 -0.9999999 0
vn 0.0003854052 -0.9999999 0
vn 0.0003854052 -0.9999999 0
vn -0.0003860109 0.9999999 0
vn -0.0003860109 0.9999999 0
vn -0.0003860109 0.9999999 0
vn -0.0003860109 0.9999999 0
vn -0.7071091 -0.0002738439 0.7071044
vn -0.7071091 -0.0002738439 0.7071044
vn -0.707109 -0.0002738438 0.7071044
vn -0.7071091 -0.0002738438 0.7071044
vn 0.7071075 0.0002726545 0.7071061
vn 0.7071075 0.0002726545 0.707106
vn 0.7071075 0.0002726545 0.7071061
vn 0.7071075 0.0002726545 0.707106
vn 0.7071078 0.0002726544 -0.7071058
vn 0.7071078 0.0002726544 -0.7071058
vn 0.7071077 0.0002726543 -0.7071058
vn 0.7071078 0.0002726544 -0.7071058
vn -0.7071091 -0.0002738439 -0.7071044
vn -0.707109 -0.0002738439 -0.7071045
vn -0.707109 -0.0002738439 -0.7071045
vn -0.707109 -0.0002738438 -0.7071044
vn -0.4570111 -0.889461 0
vn -0.4570111 -0.889461 0
vn -0.4570111 -0.889461 0
vn -0.4570111 -0.889461 0
vn 0.457693 -0.8891103 0
vn 0.457693 -0.8891103 0
vn 0.457693 -0.8891103 0
vn 0.457693 -0.8891103 0
vn 0.4162262 -0.8085594 0.4159177
vn 0.4162262 -0.8085594 0.4159176
vn 0.4162262 -0.8085593 0.4159177
vn 0.0003427454 -0.8892865 0.4573505
vn 0.0003427454 -0.8892864 0.4573505
vn 0.0003427454 -0.8892865 0.4573505
vn 0.0003427455 -0.8892865 0.4573505
vn -0.4156089 -0.8088777 0.415916
vn -0.4156089 -0.8088777 0.415916
vn -0.4156089 -0.8088778 0.415916
vn -0.4156093 -0.8088785 -0.4159139
vn -0.4156093 -0.8088785 -0.4159139
vn -0.4156094 -0.8088785 -0.415914
vn 0.0003427214 -0.8892864 -0.4573506
vn 0.0003427214 -0.8892864 -0.4573506
vn 0.0003427214 -0.8892864 -0.4573506
vn 0.0003427213 -0.8892864 -0.4573506
vn 0.4162274 -0.80856 -0.4159153
vn 0.4162273 -0.80856 -0.4159153
vn 0.4162273 -0.80856 -0.4159153
vn -0.457684 0.8891149 0
vn -0.457684 0.8891149 0
vn -0.457684 0.8891149 0
vn -0.457684 0.8891149 0
vn 0.4570125 0.8894603 0
vn 0.4570125 0.8894603 0
vn 0.4570125 0.8894603 0
vn 0.4570125 0.8894603 0
vn -0.4162202 0.8085643 0.4159141
vn -0.4162202 0.8085644 0.415914
vn -0.4162202 0.8085644 0.415914
vn -0.000342504 0.8892838 0.4573556
vn -0.0003425039 0.8892839 0.4573556
vn -0.0003425039 0.8892839 0.4573556
vn -0.0003425039 0.8892839 0.4573556
vn 0.4156055 0.8088716 0.4159311
vn 0.4156055 0.8088716 0.4159311
vn 0.4156055 0.8088717 0.4159311
vn 0.4156053 0.8088713 -0.415932
vn 0.4156053 0.8088713 -0.415932
vn 0.4156053 0.8088713 -0.415932
vn -0.0003424325 0.8892856 -0.4573523
vn -0.0003424325 0.8892855 -0.4573524
vn -0.0003424325 0.8892856 -0.4573523
vn -0.0003424324 0.8892856 -0.4573523
vn -0.4162206 0.8085636 -0.4159149
vn -0.4162206 0.8085636 -0.4159149
vn -0.4162205 0.8085637 -0.4159149
vn 0 -1 0
vn 0 -1 0
vn 0 -1 0
vn 0 -1 0
vn 0 0 1
vn 0 0 1
vn 0 0 1
vn 0 0 1
vn 0 0 -1
vn 0 0 -1
vn 0 0 -1
vn 0 0 -1
vn 0 -1 0
vn 0 -1 0
vn 0 -1 0
vn 0 -1 0
vn -1 0 0
vn -1 0 0
vn -1 0 0
vn -1 0 0
vn 1 0 0
vn 1 0 0
vn 1 0 0
vn 1 0 0
vn 0 -0.5144949 0.8574935
vn 0 -0.5144949 0.8574935
vn 0 -0.5144949 0.8574935
vn 0 -0.5144949 0.8574935
vn 0 0.514496 0.8574927
vn 0 0.514496 0.8574927
vn 0 0.514496 0.8574927
vn 0 0.514496 0.8574927
vn 0 0.514496 -0.8574927
vn 0 0.514496 -0.8574927
vn 0 0.514496 -0.8574927
vn 0 0.514496 -0.8574927
vn 0 -0.5144953 -0.8574932
vn 0 -0.5144953 -0.8574932
vn 0 -0.5144953 -0.8574932
vn 0 -0.5144953 -0.8574932
vn -0.7071076 -0.7071059 0
vn -0.7071076 -0.7071059 0
vn -0.7071076 -0.7071059 0
vn -0.7071076 -0.7071059 0
vn -0.7071087 0.7071049 0
vn -0.7071087 0.7071048 0
vn -0.7071087 0.7071048 0
vn -0.7071087 0.7071048 0
vn -0.4574963 0.4574925 0.7624944
vn -0.4574963 0.4574925 0.7624944
vn -0.4574963 0.4574924 0.7624944
vn -0.5144958 0 0.8574929
vn -0.5144958 0 0.8574929
vn -0.5144958 0 0.8574929
vn -0.5144958 0 0.8574929
vn -0.4574964 -0.4574944 0.7624931
vn -0.4574964 -0.4574944 0.7624932
vn -0.4574964 -0.4574945 0.7624932
vn -0.4574963 -0.457495 -0.7624929
vn -0.4574963 -0.457495 -0.7624929
vn -0.4574963 -0.457495 -0.7624929
vn -0.5144966 0 -0.8574924
vn -0.5144966 0 -0.8574924
vn -0.5144966 0 -0.8574924
vn -0.5144966 0 -0.8574924
vn -0.4574962 0.4574929 -0.7624942
vn -0.4574962 0.4574929 -0.7624941
vn -0.4574962 0.457493 -0.7624941
vn 0.7071076 -0.7071059 0
vn 0.7071076 -0.7071059 0
vn 0.7071076 -0.7071059 0
vn 0.7071076 -0.7071059 0
vn 0.7071061 0.7071075 0
vn 0.7071061 0.7071075 0
vn 0.7071061 0.7071075 0
vn 0.7071061 0.7071075 0
vn 0.4574964 -0.4574944 0.7624932
vn 0.4574964 -0.4574944 0.7624931
vn 0.4574964 -0.4574945 0.7624932
vn 0.5144958 0 0.8574929
vn 0.5144958 0 0.8574929
vn 0.5144958 0 0.8574929
vn 0.5144958 0 0.8574929
vn 0.4574947 0.4574947 0.7624941
vn 0.4574947 0.4574947 0.7624941
vn 0.4574946 0.4574946 0.7624941
vn 0.4574947 0.4574947 -0.7624941
vn 0.4574947 0.4574947 -0.7624941
vn 0.4574947 0.4574947 -0.7624941
vn 0.5144966 0 -0.8574924
vn 0.5144966 0 -0.8574924
vn 0.5144966 0 -0.8574924
vn 0.5144966 0 -0.8574924
vn 0.4574963 -0.457495 -0.7624929
vn 0.4574963 -0.457495 -0.7624929
vn 0.4574963 -0.457495 -0.7624929
g BlocksterMiniMesh_0
f 3/3/3 2/2/2 1/1/1
f 4/4/4 3/3/3 1/1/1
f 3/3/3 4/4/4 5/5/5
f 4/4/4 6/6/6 5/5/5
f 6/6/6 7/7/7 5/5/5
f 8/8/8 6/6/6 4/4/4
f 9/9/9 8/8/8 4/4/4
f 7/7/7 10/10/10 5/5/5
f 6/6/6 11/11/11 7/7/7
f 8/8/8 12/12/12 6/6/6
f 9/9/9 13/13/13 8/8/8
f 16/16/16 15/15/15 14/14/14
f 17/17/17 16/16/16 14/14/14
f 18/18/18 15/15/15 16/16/16
f 15/15/15 18/18/18 19/19/19
f 18/18/18 20/20/20 19/19/19
f 23/23/23 22/22/22 21/21/21
f 21/21/21 24/24/24 23/23/23
f 27/27/27 26/26/26 25/25/25
f 28/28/28 27/27/27 25/25/25
f 28/28/28 25/25/25 29/29/29
f 25/25/25 30/30/30 29/29/29
f 33/33/33 32/32/32 31/31/31
f 34/34/34 33/33/33 31/31/31
f 37/37/37 36/36/36 35/35/35
f 35/35/35 38/38/38 37/37/37
f 41/41/41 40/40/40 39/39/39
f 42/42/42 41/41/41 39/39/39
f 45/45/45 44/44/44 43/43/43
f 48/48/48 47/47/47 46/46/46
f 51/51/51 50/50/50 49/49/49
f 51/51/51 49/49/49 52/52/52
f 49/49/49 53/53/53 52/52/52
f 51/51/51 54/54/54 50/50/50
f 54/54/54 55/55/55 50/50/50
f 58/58/58 57/57/57 56/56/56
f 59/59/59 58/58/58 56/56/56
f 56/56/56 57/57/57 60/60/60
f 57/57/57 61/61/61 60/60/60
f 64/64/64 63/63/63 62/62/62
f 65/65/65 64/64/64 62/62/62
f 68/68/68 67/67/67 66/66/66
f 71/71/71 70/70/70 69/69/69
f 74/74/74 73/73/73 72/72/72
f 75/75/75 74/74/74 72/72/72
f 78/78/78 77/77/77 76/76/76
f 79/79/79 78/78/78 76/76/76
f 82/82/82 81/81/81 80/80/80
f 83/83/83 82/82/82 80/80/80
f 86/86/86 85/85/85 84/84/84
f 87/87/87 86/86/86 84/84/84
f 88/88/88 84/84/84 85/85/85
f 91/91/91 90/90/90 89/89/89
f 92/92/92 91/91/91 89/89/89
f 95/95/95 94/94/94 93/93/93
f 96/96/96 95/95/95 93/93/93
f 93/93/93 94/94/94 97/97/97
f 100/100/100 99/99/99 98/98/98
f 101/101/101 100/100/100 98/98/98
f 98/98/98 99/99/99 102/102/102
f 99/99/99 103/103/103 102/102/102
f 106/106/106 105/105/105 104/104/104
f 107/107/107 106/106/106 104/104/104
f 110/110/110 109/109/109 108/108/108
f 111/111/111 110/110/110 108/108/108
f 114/114/114 113/113/113 112/112/112
f 115/115/115 114/114/114 112/112/112
f 118/118/118 117/117/117 116/116/116
f 119/119/119 118/118/118 116/116/116
f 122/122/122 121/121/121 120/120/120
f 123/123/123 122/122/122 120/120/120
f 126/126/126 125/125/125 124/124/124
f 127/127/127 126/126/126 124/124/124
f 130/130/130 129/129/129 128/128/128
f 131/131/131 130/130/130 128/128/128
f 134/134/134 133/133/133 132/132/132
f 135/135/135 134/134/134 132/132/132
f 138/138/138 137/137/137 136/136/136
f 139/139/139 138/138/138 136/136/136
f 142/142/142 141/141/141 140/140/140
f 145/145/145 144/144/144 143/143/143
f 148/148/148 147/147/147 146/146/146
f 149/149/149 148/148/148 146/146/146
f 152/152/152 151/151/151 150/150/150
f 153/153/153 152/152/152 150/150/150
f 156/156/156 155/155/155 154/154/154
f 159/159/159 158/158/158 157/157/157
f 162/162/162 161/161/161 160/160/160
f 165/165/165 164/164/164 163/163/163
f 166/166/166 165/165/165 163/163/163
f 169/169/169 168/168/168 167/167/167
f 170/170/170 169/169/169 167/167/167
f 173/173/173 172/172/172 171/171/171
f 174/174/174 173/173/173 171/171/171
f 177/177/177 176/176/176 175/175/175
f 180/180/180 179/179/179 178/178/178
f 181/181/181 180/180/180 178/178/178
f 184/184/184 183/183/183 182/182/182
f 187/187/187 186/186/186 185/185/185
f 190/190/190 189/189/189 188/188/188
f 191/191/191 190/190/190 188/188/188
f 194/194/194 193/193/193 192/192/192
f 195/195/195 194/194/194 192/192/192
f 196/196/196 192/192/192 193/193/193
f 199/199/199 198/198/198 197/197/197
f 200/200/200 199/199/199 197/197/197
f 203/203/203 202/202/202 201/201/201
f 204/204/204 203/203/203 201/201/201
f 201/201/201 202/202/202 205/205/205
f 208/208/208 207/207/207 206/206/206
f 209/209/209 208/208/208 206/206/206
f 206/206/206 207/207/207 210/210/210
f 207/207/207 211/211/211 210/210/210
f 214/214/214 213/213/213 212/212/212
f 215/215/215 214/214/214 212/212/212
f 218/218/218 217/217/217 216/216/216
f 219/219/219 218/218/218 216/216/216
f 222/222/222 221/221/221 220/220/220
f 223/223/223 222/222/222 220/220/220
f 226/226/226 225/225/225 224/224/224
f 227/227/227 226/226/226 224/224/224
f 230/230/230 229/229/229 228/228/228
f 231/231/231 230/230/230 228/228/228
f 234/234/234 233/233/233 232/232/232
f 235/235/235 234/234/234 232/232/232
f 238/238/238 237/237/237 236/236/236
f 239/239/239 238/238/238 236/236/236
f 242/242/242 241/241/241 240/240/240
f 243/243/243 242/242/242 240/240/240
f 246/246/246 245/245/245 244/244/244
f 247/247/247 246/246/246 244/244/244
f 250/250/250 249/249/249 248/248/248
f 253/253/253 252/252/252 251/251/251
f 256/256/256 255/255/255 254/254/254
f 257/257/257 256/256/256 254/254/254
f 260/260/260 259/259/259 258/258/258
f 261/261/261 260/260/260 258/258/258
f 264/264/264 263/263/263 262/262/262
f 267/267/267 266/266/266 265/265/265
f 270/270/270 269/269/269 268/268/268
f 273/273/273 272/272/272 271/271/271
f 274/274/274 273/273/273 271/271/271
f 277/277/277 276/276/276 275/275/275
f 278/278/278 277/277/277 275/275/275
f 281/281/281 280/280/280 279/279/279
f 282/282/282 281/281/281 279/279/279
f 285/285/285 284/284/284 283/283/283
f 288/288/288 287/287/287 286/286/286
f 289/289/289 288/288/288 286/286/286
f 292/292/292 291/291/291 290/290/290
f 295/295/295 294/294/294 293/293/293
f 298/298/298 297/297/297 296/296/296
f 299/299/299 298/298/298 296/296/296
f 302/302/302 301/301/301 300/300/300
f 303/303/303 302/302/302 300/300/300
f 306/306/306 305/305/305 304/304/304
f 307/307/307 306/306/306 304/304/304
f 306/306/306 307/307/307 308/308/308
f 307/307/307 309/309/309 308/308/308
f 312/312/312 311/311/311 310/310/310
f 313/313/313 312/312/312 310/310/310
f 310/310/310 314/314/314 313/313/313
f 314/314/314 315/315/315 313/313/313
f 316/316/316 310/310/310 311/311/311
f 319/319/319 318/318/318 317/317/317
f 320/320/320 319/319/319 317/317/317
f 323/323/323 322/322/322 321/321/321
f 324/324/324 323/323/323 321/321/321
f 324/324/324 321/321/321 325/325/325
f 321/321/321 326/326/326 325/325/325
f 329/329/329 328/328/328 327/327/327
f 330/330/330 329/329/329 327/327/327
f 333/333/333 332/332/332 331/331/331
f 334/334/334 333/333/333 331/331/331
f 334/334/334 331/331/331 335/335/335
f 331/331/331 336/336/336 335/335/335
f 339/339/339 338/338/338 337/337/337
f 340/340/340 339/339/339 337/337/337
f 343/343/343 342/342/342 341/341/341
f 344/344/344 343/343/343 341/341/341
f 347/347/347 346/346/346 345/345/345
f 345/345/345 348/348/348 347/347/347
f 351/351/351 350/350/350 349/349/349
f 354/354/354 353/353/353 352/352/352
f 357/357/357 356/356/356 355/355/355
f 360/360/360 359/359/359 358/358/358
f 363/363/363 362/362/362 361/361/361
f 364/364/364 363/363/363 361/361/361
f 363/363/363 364/364/364 365/365/365
f 364/364/364 366/366/366 365/365/365
f 367/367/367 366/366/366 364/364/364
f 370/370/370 369/369/369 368/368/368
f 371/371/371 370/370/370 368/368/368
f 374/374/374 373/373/373 372/372/372
f 375/375/375 374/374/374 372/372/372
f 378/378/378 377/377/377 376/376/376
f 377/377/377 379/379/379 376/376/376
f 379/379/379 380/380/380 376/376/376
f 379/379/379 377/377/377 381/381/381
f 381/381/381 377/377/377 382/382/382
f 381/381/381 383/383/383 379/379/379
f 381/381/381 384/384/384 383/383/383
f 384/384/384 385/385/385 383/383/383
f 381/381/381 386/386/386 384/384/384
f 389/389/389 388/388/388 387/387/387
f 390/390/390 389/389/389 387/387/387
f 393/393/393 392/392/392 391/391/391
f 394/394/394 393/393/393 391/391/391
f 397/397/397 396/396/396 395/395/395
f 398/398/398 397/397/397 395/395/395
f 401/401/401 400/400/400 399/399/399
f 402/402/402 401/401/401 399/399/399
f 405/405/405 404/404/404 403/403/403
f 406/406/406 405/405/405 403/403/403
f 409/409/409 408/408/408 407/407/407
f 410/410/410 409/409/409 407/407/407
f 413/413/413 412/412/412 411/411/411
f 414/414/414 413/413/413 411/411/411
f 417/417/417 416/416/416 415/415/415
f 418/418/418 417/417/417 415/415/415
f 421/421/421 420/420/420 419/419/419
f 422/422/422 421/421/421 419/419/419
f 425/425/425 424/424/424 423/423/423
f 426/426/426 425/425/425 423/423/423
f 429/429/429 428/428/428 427/427/427
f 430/430/430 429/429/429 427/427/427
f 433/433/433 432/432/432 431/431/431
f 434/434/434 433/433/433 431/431/431
f 437/437/437 436/436/436 435/435/435
f 440/440/440 439/439/439 438/438/438
f 441/441/441 440/440/440 438/438/438
f 444/444/444 443/443/443 442/442/442
f 447/447/447 446/446/446 445/445/445
f 450/450/450 449/449/449 448/448/448
f 451/451/451 450/450/450 448/448/448
f 454/454/454 453/453/453 452/452/452
f 457/457/457 456/456/456 455/455/455
f 458/458/458 457/457/457 455/455/455
f 461/461/461 460/460/460 459/459/459
f 462/462/462 461/461/461 459/459/459
f 465/465/465 464/464/464 463/463/463
f 468/468/468 467/467/467 466/466/466
f 469/469/469 468/468/468 466/466/466
f 472/472/472 471/471/471 470/470/470
f 475/475/475 474/474/474 473/473/473
f 478/478/478 477/477/477 476/476/476
f 479/479/479 478/478/478 476/476/476
f 482/482/482 481/481/481 480/480/480
f 485/485/485 484/484/484 483/483/483
f 486/486/486 485/485/485 483/483/483
f 489/489/489 488/488/488 487/487/487
f 490/490/490 489/489/489 487/487/487
f 493/493/493 492/492/492 491/491/491
f 494/494/494 493/493/493 491/491/491
f 497/497/497 496/496/496 495/495/495
f 498/498/498 497/497/497 495/495/495
f 501/501/501 500/500/500 499/499/499
f 502/502/502 501/501/501 499/499/499
f 505/505/505 504/504/504 503/503/503
f 506/506/506 505/505/505 503/503/503
f 509/509/509 508/508/508 507/507/507
f 510/510/510 509/509/509 507/507/507
f 513/513/513 512/512/512 511/511/511
f 514/514/514 513/513/513 511/511/511
f 517/517/517 516/516/516 515/515/515
f 518/518/518 517/517/517 515/515/515
f 521/521/521 520/520/520 519/519/519
f 522/522/522 521/521/521 519/519/519
f 525/525/525 524/524/524 523/523/523
f 526/526/526 525/525/525 523/523/523
f 529/529/529 528/528/528 527/527/527
f 530/530/530 529/529/529 527/527/527
f 533/533/533 532/532/532 531/531/531
f 536/536/536 535/535/535 534/534/534
f 537/537/537 536/536/536 534/534/534
f 540/540/540 539/539/539 538/538/538
f 543/543/543 542/542/542 541/541/541
f 546/546/546 545/545/545 544/544/544
f 547/547/547 546/546/546 544/544/544
f 550/550/550 549/549/549 548/548/548
f 553/553/553 552/552/552 551/551/551
f 554/554/554 553/553/553 551/551/551
f 557/557/557 556/556/556 555/555/555
f 558/558/558 557/557/557 555/555/555
f 561/561/561 560/560/560 559/559/559
f 564/564/564 563/563/563 562/562/562
f 565/565/565 564/564/564 562/562/562
f 568/568/568 567/567/567 566/566/566
f 571/571/571 570/570/570 569/569/569
f 574/574/574 573/573/573 572/572/572
f 575/575/575 574/574/574 572/572/572
f 578/578/578 577/577/577 576/576/576
f 581/581/581 580/580/580 579/579/579
f 582/582/582 581/581/581 579/579/579
f 585/585/585 584/584/584 583/583/583
f 586/586/586 585/585/585 583/583/583
f 589/589/589 588/588/588 587/587/587
f 590/590/590 589/589/589 587/587/587
f 593/593/593 592/592/592 591/591/591
f 594/594/594 593/593/593 591/591/591
f 597/597/597 596/596/596 595/595/595
f 598/598/598 597/597/597 595/595/595
f 601/601/601 600/600/600 599/599/599
f 602/602/602 601/601/601 599/599/599
f 605/605/605 604/604/604 603/603/603
f 606/606/606 605/605/605 603/603/603
f 609/609/609 608/608/608 607/607/607
f 610/610/610 609/609/609 607/607/607
f 613/613/613 612/612/612 611/611/611
f 614/614/614 613/613/613 611/611/611
f 617/617/617 616/616/616 615/615/615
f 618/618/618 617/617/617 615/615/615
f 621/621/621 620/620/620 619/619/619
f 622/622/622 621/621/621 619/619/619
f 625/625/625 624/624/624 623/623/623
f 626/626/626 625/625/625 623/623/623
f 629/629/629 628/628/628 627/627/627
f 632/632/632 631/631/631 630/630/630
f 633/633/633 632/632/632 630/630/630
f 636/636/636 635/635/635 634/634/634
f 639/639/639 638/638/638 637/637/637
f 642/642/642 641/641/641 640/640/640
f 643/643/643 642/642/642 640/640/640
f 646/646/646 645/645/645 644/644/644
f 649/649/649 648/648/648 647/647/647
f 650/650/650 649/649/649 647/647/647
f 653/653/653 652/652/652 651/651/651
f 654/654/654 653/653/653 651/651/651
f 657/657/657 656/656/656 655/655/655
f 660/660/660 659/659/659 658/658/658
f 661/661/661 660/660/660 658/658/658
f 664/664/664 663/663/663 662/662/662
f 667/667/667 666/666/666 665/665/665
f 670/670/670 669/669/669 668/668/668
f 669/669/669 671/671/671 668/668/668
f 674/674/674 673/673/673 672/672/672
